<svg
  width="20"
  height="20"
  viewBox="0 0 200 200"
  xmlns="http://www.w3.org/2000/svg"
  xml:space="preserve"
  fill= "#858686"
  style="fill-rule:evenodd;clip-rule:evenodd;stroke-linejoin:round;stroke-miterlimit:2">
  <g opacity="1">
  <path d="M64.176 80.284a5.318 5.318 0 0 0-5.315-5.316H38.194a5.318 5.318 0 0 0-5.315 5.316v88.131a5.317 5.317 0 0 0 5.315 5.315h20.667a5.317 5.317 0 0 0 5.315-5.315V80.284ZM108.849 88.064v-7.78a5.318 5.318 0 0 0-5.316-5.316H82.867a5.318 5.318 0 0 0-5.316 5.316v88.131a5.318 5.318 0 0 0 5.316 5.315h20.666a5.318 5.318 0 0 0 5.316-5.315v-41.566S110.422 100 126.672 100c16.249 0 16.249 24.349 16.249 24.349v44.066a5.318 5.318 0 0 0 5.316 5.315h20.666a5.318 5.318 0 0 0 5.316-5.315v-44.066s6.37-51.791-36.246-51.791c-18.665 0-26.135 8.613-29.124 15.506Z"/><circle cx="48.55" cy="46.038" r="20.531" transform="matrix(.98145 0 0 .98145 .9 1.235)"/></g></svg>
