<svg
 width="20"
 height="20"
 fill= "#858686"
 viewBox="0 0 200 200"
 xmlns="http://www.w3.org/2000/svg"
 xml:space="preserve" style="fill-rule:evenodd;clip-rule:evenodd;stroke-linejoin:round;stroke-miterlimit:2"><path d="M100.095 7.382c51.708 0 93.688 41.837 93.688 93.369 0 51.533-41.98 93.37-93.688 93.37-51.708 0-93.688-41.837-93.688-93.37 0-51.532 41.98-93.369 93.688-93.369Zm.591 6.426c48.149 0 87.24 38.958 87.24 86.943 0 47.986-39.091 86.944-87.24 86.944-48.149 0-87.24-38.958-87.24-86.944 0-47.985 39.091-86.943 87.24-86.943Z"/><path d="M90.862 12.292S52.257 34.644 52.257 100.45c0 58.603 38.605 89.351 38.605 89.351h9.233s-39.968-28.685-40.54-89.05C58.982 40.387 100 12.292 100 12.292h-9.138ZM109.328 11.245s38.605 22.352 38.605 88.158c0 58.603-38.605 89.351-38.605 89.351h-9.233s39.968-28.685 40.54-89.05c.573-60.364-40.445-88.459-40.445-88.459h9.138Z"/><path d="M96.87 11.245h7.875v178.556H96.87z"/><path d="m190.114 97.29-.062 7.875-178.55-1.41.062-7.873zM178.998 51.033l-.062 7.874-157.934-1.246.062-7.874zM176.083 144.228l-.062 7.874L23.826 150.9l.062-7.874z"/></svg>
